<svg height="512pt" viewBox="-101 0 512 512.001" width="512pt" xmlns="http://www.w3.org/2000/svg"><path d="m155 147.152344c-11.199219 0-20.308594 8.980468-20.308594 20.007812 0 11.03125 9.109375 20 20.308594 20 11.210938 0 20.320312-8.96875 20.320312-20 0-11.027344-9.109374-20.007812-20.320312-20.007812zm0 0"/><path d="m256.402344 304.320312h-16.230469c5.222656-16.355468 14.136719-31.253906 26.269531-43.738281 28.089844-28.78125 43.558594-66.710937 43.558594-106.8125 0-41.089843-16.121094-79.71875-45.378906-108.769531-29.273438-29.050781-68.101563-45-109.460938-45-41.949218.308594-82.25 16.78125-111.3125 46.359375-28.707031 29.242187-44.277344 67.96875-43.8398435 109.0625.3710935 39.347656 15.7499995 76.640625 43.3398435 105.058594 11.9375 12.207031 20.996094 27.367187 26.351563 43.839843h-16.09375c-8.285157 0-15 6.714844-15 15 0 8.28125 6.714843 15 15 15h202.800781c8.28125 0 15-6.71875 15-15 0-8.285156-6.71875-15-15.003906-15zm-86.402344-89.429687v89.429687h-30v-89.429687c-20.441406-6.359375-35.308594-25.347656-35.308594-47.730469 0-27.578125 22.566406-50.007812 50.308594-50.007812 27.75 0 50.320312 22.429687 50.320312 50.007812 0 22.382813-14.878906 41.371094-35.320312 47.730469zm0 0"/><path d="m73.6875 378.3125c0 39.429688 28.617188 72.347656 66.316406 79.355469v39.332031c0 8.285156 6.714844 15 15 15 8.28125 0 15-6.714844 15-15v-39.332031c37.695313-7.007813 66.3125-39.925781 66.3125-79.355469v-13.992188h-162.628906zm0 0"/></svg>